HIERARCHY
ROOT root
{
	OFFSET	0.00	0.00	0.00
	CHANNELS 6 Xposition Yposition Zposition Zrotation Xrotation Yrotation
	JOINT back
	{
		OFFSET	 0.494700	-0.003154	-0.003150
		CHANNELS 3 Zrotation Xrotation Yrotation
		JOINT chest
		{
			OFFSET	 0.264817	 0.004177	 0.000000
			CHANNELS 3 Zrotation Xrotation Yrotation
			JOINT l_clavicle
			{
				OFFSET	 0.114550	 0.000716	-0.065320
				CHANNELS 3 Zrotation Xrotation Yrotation
				JOINT l_end_clavicle
				{
					OFFSET	 0.162817	-0.003802	 0.000069
					CHANNELS 3 Zrotation Xrotation Yrotation
					JOINT l_shoulder
					{
						OFFSET	 0.005511	-0.036537	 0.056010
						CHANNELS 3 Zrotation Xrotation Yrotation
						JOINT l_forearm
						{
							OFFSET	 0.293352	 0.004850	-0.038040
							CHANNELS 3 Zrotation Xrotation Yrotation
							JOINT l_end_wrist
							{
								OFFSET	 0.317021	-0.006522	 0.006333
								CHANNELS 3 Zrotation Xrotation Yrotation
								JOINT l_index1
								{
									OFFSET	 0.152748	-0.021000	-0.014320
									CHANNELS 3 Zrotation Xrotation Yrotation
									JOINT l_index2
									{
										OFFSET	 0.039283	 0.000000	 0.000000
										CHANNELS 3 Zrotation Xrotation Yrotation
										JOINT l_index3
										{
											OFFSET	 0.038151	 0.000000	 0.000000
											CHANNELS 3 Zrotation Xrotation Yrotation
											End Site
											{
												OFFSET	 0.038151	 0.000000	 0.000000
											}
										}
									}
								}
								JOINT l_middle1
								{
									OFFSET	 0.151723	 0.016194	-0.014667
									CHANNELS 3 Zrotation Xrotation Yrotation
									JOINT l_middle_2
									{
										OFFSET	 0.038269	 0.000000	 0.000000
										CHANNELS 3 Zrotation Xrotation Yrotation
										JOINT l_middle_3
										{
											OFFSET	 0.039743	 0.000000	 0.000000
											CHANNELS 3 Zrotation Xrotation Yrotation
											End Site
											{
												OFFSET	 0.039743	 0.000000	 0.000000
											}
										}
									}
								}
								JOINT l_pinky1
								{
									OFFSET	 0.117088	 0.077397	-0.013819
									CHANNELS 3 Zrotation Xrotation Yrotation
									JOINT l_pinky2
									{
										OFFSET	 0.028938	 0.000000	 0.000000
										CHANNELS 3 Zrotation Xrotation Yrotation
										JOINT l_pinky3
										{
											OFFSET	 0.027080	 0.000000	 0.000000
											CHANNELS 3 Zrotation Xrotation Yrotation
											End Site
											{
												OFFSET	 0.027080	 0.000000	 0.000000
											}
										}
									}
								}
								JOINT l_ring1
								{
									OFFSET	 0.137788	 0.047650	-0.014135
									CHANNELS 3 Zrotation Xrotation Yrotation
									JOINT l_ring2
									{
										OFFSET	 0.030749	 0.000000	 0.000000
										CHANNELS 3 Zrotation Xrotation Yrotation
										JOINT l_ring3
										{
											OFFSET	 0.032711	 0.000000	 0.000000
											CHANNELS 3 Zrotation Xrotation Yrotation
											End Site
											{
												OFFSET	 0.032711	 0.000000	 0.000000
											}
										}
									}
								}
								JOINT l_thumb1
								{
									OFFSET	 0.054053	-0.036728	-0.011261
									CHANNELS 3 Zrotation Xrotation Yrotation
									JOINT l_thumb_2
									{
										OFFSET	 0.051141	-0.005593	-0.001180
										CHANNELS 3 Zrotation Xrotation Yrotation
										JOINT l_thumb_3
										{
											OFFSET	 0.046422	-0.001905	 0.000191
											CHANNELS 3 Zrotation Xrotation Yrotation
											End Site
											{
												OFFSET	 0.046422	-0.001905	 0.000191
											}
										}
									}
								}
							}
						}
					}
				}
			}
			JOINT neck
			{
				OFFSET	 0.143918	 0.000470	 0.000000
				CHANNELS 3 Zrotation Xrotation Yrotation
				JOINT head
				{
					OFFSET	-0.005141	-0.004258	 0.061190
					CHANNELS 3 Zrotation Xrotation Yrotation
					End Site
					{
						OFFSET	-0.005141	-0.004258	 0.061190
					}
				}
			}
			JOINT r_clavicle
			{
				OFFSET	 0.114552	 0.000716	 0.065320
				CHANNELS 3 Zrotation Xrotation Yrotation
				JOINT r_end_clavicle
				{
					OFFSET	-0.162817	 0.003801	-0.000067
					CHANNELS 3 Zrotation Xrotation Yrotation
					JOINT r_shoulder
					{
						OFFSET	 0.002062	 0.026294	-0.022755
						CHANNELS 3 Zrotation Xrotation Yrotation
						JOINT r_forearm
						{
							OFFSET	-0.279907	-0.027041	 0.065271
							CHANNELS 3 Zrotation Xrotation Yrotation
							JOINT r_end_wrist
							{
								OFFSET	-0.317022	 0.006522	-0.006331
								CHANNELS 3 Zrotation Xrotation Yrotation
								JOINT r_index1
								{
									OFFSET	-0.152748	 0.021000	 0.014322
									CHANNELS 3 Zrotation Xrotation Yrotation
									JOINT r_index2
									{
										OFFSET	-0.039280	 0.000000	-0.000001
										CHANNELS 3 Zrotation Xrotation Yrotation
										JOINT r_index3
										{
											OFFSET	-0.038152	 0.000000	-0.000001
											CHANNELS 3 Zrotation Xrotation Yrotation
											End Site
											{
												OFFSET	-0.038152	 0.000000	-0.000001
											}
										}
									}
								}
								JOINT r_middle1
								{
									OFFSET	-0.151722	-0.016194	 0.014664
									CHANNELS 3 Zrotation Xrotation Yrotation
									JOINT r_middle_2
									{
										OFFSET	-0.038270	 0.000000	 0.000003
										CHANNELS 3 Zrotation Xrotation Yrotation
										JOINT r_middle_3
										{
											OFFSET	-0.039744	 0.000000	 0.000000
											CHANNELS 3 Zrotation Xrotation Yrotation
											End Site
											{
												OFFSET	-0.039744	 0.000000	 0.000000
											}
										}
									}
								}
								JOINT r_pinky1
								{
									OFFSET	-0.117090	-0.077397	 0.013818
									CHANNELS 3 Zrotation Xrotation Yrotation
									JOINT r_pinky2
									{
										OFFSET	-0.028938	 0.000000	 0.000000
										CHANNELS 3 Zrotation Xrotation Yrotation
										JOINT r_pinky3
										{
											OFFSET	-0.027079	-0.000001	 0.000000
											CHANNELS 3 Zrotation Xrotation Yrotation
											End Site
											{
												OFFSET	-0.027079	-0.000001	 0.000000
											}
										}
									}
								}
								JOINT r_ring1
								{
									OFFSET	-0.137790	-0.047650	 0.014136
									CHANNELS 3 Zrotation Xrotation Yrotation
									JOINT r_ring2
									{
										OFFSET	-0.030748	 0.000000	-0.000001
										CHANNELS 3 Zrotation Xrotation Yrotation
										JOINT r_ring3
										{
											OFFSET	-0.032707	-0.000001	 0.000003
											CHANNELS 3 Zrotation Xrotation Yrotation
											End Site
											{
												OFFSET	-0.032707	-0.000001	 0.000003
											}
										}
									}
								}
								JOINT r_thumb1
								{
									OFFSET	-0.054054	 0.036728	 0.011262
									CHANNELS 3 Zrotation Xrotation Yrotation
									JOINT r_thumb_2
									{
										OFFSET	-0.051140	 0.005594	 0.001177
										CHANNELS 3 Zrotation Xrotation Yrotation
										JOINT r_thumb_3
										{
											OFFSET	-0.046419	 0.001906	-0.000190
											CHANNELS 3 Zrotation Xrotation Yrotation
											End Site
											{
												OFFSET	-0.046419	 0.001906	-0.000190
											}
										}
									}
								}
							}
						}
					}
				}
			}
		}
	}
	JOINT Pelvis
	{
		OFFSET	 0.153808	-0.002935	-0.002617
		CHANNELS 3 Zrotation Xrotation Yrotation
		JOINT l_thigh
		{
			OFFSET	 0.145220	-0.127337	 0.003593
			CHANNELS 3 Zrotation Xrotation Yrotation
			End Site
			{
				OFFSET	 0.145220	-0.127337	 0.003593
			}
		}
		JOINT r_thigh
		{
			OFFSET	 0.143035	 0.137869	 0.004460
			CHANNELS 3 Zrotation Xrotation Yrotation
			End Site
			{
				OFFSET	 0.143035	 0.137869	 0.004460
			}
		}
	}
}
MOTION
Frames:    7
Frame Time: 0.01666667
-0.001963	 0.002454	-0.116118	 179.305400	 0.221747	-89.965800	-0.000021	 0.000000	 0.000000	-0.000021	 0.000000	 0.000000	-3.525149	 11.225090	 114.920700	-0.813313	 0.122417	-8.559153	-39.721840	-22.971270	 34.504040	-46.877240	 33.730030	 8.058828	-1.508344	 27.119350	 0.905986	-11.666870	-4.636808	 35.944750	 2.477603	-1.136251	 35.323120	 2.739605	 0.675539	-52.364350	-0.352786	 1.276010	 35.556880	-0.202301	 3.178486	 36.024460	 2.411832	 5.494030	-52.520410	 39.007590	 20.375220	 27.137650	-6.436097	 19.357820	 32.910680	-5.387433	 19.254410	-57.899170	 18.466570	 10.398590	 33.996140	-3.686892	 9.480865	 35.137450	-0.646625	 10.763470	-53.750010	-51.281710	-9.954659	 11.445530	 23.982090	-0.549087	 0.208112	 14.789960	-0.368235	 3.437935	-0.000006	 0.000001	 90.000000	-90.000000	 0.000000	-86.406780	 177.642400	 8.601227	 111.084700	-0.813313	 0.122417	-8.559153	 12.236280	 10.972310	 52.931600	-1.045101	 10.743230	-0.604093	-2.262662	 22.375880	-11.302420	-11.666870	-4.636809	 35.944760	 2.477604	-1.136251	 35.323130	 2.739605	 0.675539	-52.364380	-0.352786	 1.276010	 35.556880	-0.202300	 3.178487	 36.024460	 2.411833	 5.494030	-52.520430	 39.007590	 20.375220	 27.137660	-6.436093	 19.357820	 32.910680	-5.387434	 19.254410	-57.899150	 18.466580	 10.398590	 33.996150	-3.686890	 9.480865	 35.137440	-0.646626	 10.763470	-53.750010	-51.281720	-9.954665	 11.445540	 23.982080	-0.549088	 0.208112	 14.789960	-0.368242	 3.437935	 0.000000	 90.000000	 0.000000	 177.641500	 1.693646	 173.691800	-177.179200	-1.281514	-6.296279
-0.003153	-0.016576	-0.091087	 178.018000	 1.075239	-89.763760	-2.217815	 0.472908	-0.395717	-1.961065	 1.195494	-0.381622	-2.511190	 8.171368	 113.932700	-0.813313	 0.122417	-8.559153	-42.077610	-23.011020	 31.983030	-38.798690	 33.255920	 7.548675	-4.086933	 25.515990	-11.103710	-10.555490	-3.904761	 30.943790	 2.482107	-1.133398	 29.387990	 2.889768	 0.445384	-57.669830	 0.383127	 1.759051	 31.021310	-0.215226	 3.169969	 30.819840	 2.533717	 5.285698	-55.926520	 38.645230	 20.209640	 24.813080	-6.505447	 19.318840	 28.653880	-5.435076	 19.248830	-60.246880	 18.431830	 10.376570	 31.577500	-3.724350	 9.457179	 30.190700	-0.593019	 10.616560	-57.351340	-52.473250	-10.287920	 10.547160	 21.150970	-0.547014	 0.183469	 8.205601	-0.342747	 3.383805	 0.267169	-0.321287	 90.063760	-90.187720	-0.151414	-90.422590	 178.111500	 7.040905	 110.405900	-0.813313	 0.122417	-8.559153	 10.282320	 12.152220	 53.364320	-18.922800	 7.251783	-2.859059	-1.663097	 16.043400	-15.569830	-11.459310	-4.479081	 38.689570	 2.475088	-1.138119	 38.814990	 2.695712	 0.734885	-50.939870	-0.074612	 1.477810	 36.365100	-0.207873	 3.174598	 33.739570	 2.525129	 5.301363	-55.674350	 39.942070	 20.801000	 24.766540	-6.479841	 19.332620	 30.207710	-5.492745	 19.244790	-63.070280	 19.065170	 10.783440	 32.380900	-3.703207	 9.470081	 32.960780	-0.602764	 10.645250	-56.655430	-48.286570	-8.873206	 14.778310	 22.369300	-0.548077	 0.194063	 15.213750	-0.369658	 3.441513	 0.000000	 90.000000	 0.000000	 176.117100	 3.799785	 172.034500	-176.797800	-1.520425	-5.895193
-0.003481	-0.022849	-0.082745	 177.597500	 1.353571	-89.679270	-2.945530	 0.631275	-0.525090	-2.602236	 1.600700	-0.506488	-2.189673	 7.159032	 113.620600	-0.813313	 0.122417	-8.559153	-42.849030	-22.999480	 31.147270	-36.107070	 33.099690	 7.295634	-4.877140	 25.086810	-15.109270	-10.177760	-3.686137	 29.298580	 2.483648	-1.132564	 27.437730	 2.934381	 0.366842	-59.413010	 0.632675	 1.904638	 29.529490	-0.219636	 3.167431	 29.109650	 2.571018	 5.215711	-57.045400	 38.524780	 20.158280	 24.049520	-6.528880	 19.307110	 27.255330	-5.450778	 19.247400	-61.018320	 18.420230	 10.369670	 30.782770	-3.737093	 9.450104	 28.565290	-0.577472	 10.567610	-58.534310	-52.866170	-10.393380	 10.250280	 20.220690	-0.546068	 0.175398	 6.042020	-0.333041	 3.366700	 0.355301	-0.406632	 90.084790	-90.228310	-0.200708	-91.754680	 178.260900	 6.526180	 110.191900	-0.813313	 0.122417	-8.559153	 9.634405	 12.539400	 53.517660	-24.943370	 6.187986	-3.235734	-1.478219	 13.940530	-16.939370	-11.392800	-4.425099	 39.593820	 2.474286	-1.138767	 39.962700	 2.680970	 0.754143	-50.471810	 0.016049	 1.544882	 36.630620	-0.209736	 3.173370	 32.989390	 2.559983	 5.236773	-56.709790	 40.252710	 20.932510	 23.984750	-6.494475	 19.324770	 29.320080	-5.527475	 19.243590	-64.768370	 19.263860	 10.905910	 31.849310	-3.708652	 9.466674	 32.246170	-0.589699	 10.605970	-57.609430	-47.319470	-8.481028	 15.857390	 21.839350	-0.547657	 0.189453	 15.353010	-0.370123	 3.442693	 0.000000	 90.000000	 0.000000	 175.636800	 4.500881	 171.509500	-176.672700	-1.596519	-5.765677
-0.003832	-0.030470	-0.072562	 177.091500	 1.689305	-89.564430	-3.827023	 0.825007	-0.681196	-3.377302	 2.099842	-0.657264	-1.806876	 5.924931	 113.250400	-0.813313	 0.122417	-8.559153	-43.782810	-22.969310	 30.127770	-32.821480	 32.901830	 6.931512	-5.791448	 24.626420	-20.003150	-9.712773	-3.436352	 27.303440	 2.485554	-1.131624	 25.074030	 2.985219	 0.269885	-61.525640	 0.939721	 2.072068	 27.720540	-0.225080	 3.164532	 27.036890	 2.614372	 5.129936	-58.401250	 38.377940	 20.098090	 23.124230	-6.557671	 19.293610	 25.560390	-5.469835	 19.245930	-61.953290	 18.406110	 10.361550	 29.819580	-3.752802	 9.442009	 26.595350	-0.560017	 10.507860	-59.967780	-53.343290	-10.518510	 9.889354	 19.093150	-0.544749	 0.165637	 3.419769	-0.320425	 3.346480	 0.462438	-0.514941	 90.110470	-90.279400	-0.261303	-93.362220	 178.439500	 5.901030	 109.934600	-0.813313	 0.122417	-8.559153	 8.844235	 13.009190	 53.711220	-32.303540	 4.903606	-3.452541	-1.260692	 11.385960	-18.578760	-11.313370	-4.358283	 40.692540	 2.473333	-1.139573	 41.354020	 2.662896	 0.777318	-49.904610	 0.125375	 1.626634	 36.952490	-0.212014	 3.171916	 32.080850	 2.600624	 5.157701	-57.963940	 40.631070	 21.086110	 23.035660	-6.512373	 19.315550	 28.244840	-5.569574	 19.243430	-66.825330	 19.505740	 11.051550	 31.204660	-3.715305	 9.462640	 31.380720	-0.574767	 10.558090	-58.765090	-46.159610	-7.982127	 17.153660	 21.197050	-0.547095	 0.183872	 15.521780	-0.370675	 3.444123	 0.000000	 90.000000	 0.000000	 175.069300	 5.356138	 170.859800	-176.521600	-1.687337	-5.608574
-0.004080	-0.036560	-0.064372	 176.691900	 1.956138	-89.463070	-4.530838	 0.981054	-0.805260	-3.994895	 2.502677	-0.777187	-1.506202	 4.933156	 112.960800	-0.813313	 0.122417	-8.559153	-44.527930	-22.932450	 29.307560	-30.179450	 32.733480	 6.595446	-6.496748	 24.304740	-23.938250	-9.336208	-3.249043	 25.708880	 2.487102	-1.130931	 23.185920	 3.023237	 0.191132	-63.213120	 1.188261	 2.198528	 26.274930	-0.229501	 3.162359	 25.381200	 2.647528	 5.060698	-59.484140	 38.260050	 20.051650	 22.385260	-6.580965	 19.283410	 24.206620	-5.485071	 19.244970	-62.700170	 18.394780	 10.355270	 29.050180	-3.765548	 9.435930	 25.021810	-0.547172	 10.459840	-61.112620	-53.725100	-10.616320	 9.600248	 18.192520	-0.543547	 0.157861	 1.325157	-0.309680	 3.330755	 0.548328	-0.599016	 90.131160	-90.327890	-0.309875	-94.645130	 178.580200	 5.400632	 109.728900	-0.813313	 0.122417	-8.559153	 8.208820	 13.385090	 53.872110	-38.216670	 3.855838	-3.443019	-1.091318	 9.343844	-19.872690	-11.250880	-4.303824	 41.572880	 2.472585	-1.140233	 42.465680	 2.648296	 0.795698	-49.451610	 0.212257	 1.692290	 37.209600	-0.213848	 3.170781	 31.355750	 2.631812	 5.093954	-58.965020	 40.934570	 21.204200	 22.276410	-6.526792	 19.308420	 27.386470	-5.603168	 19.244340	-68.467440	 19.699700	 11.165640	 30.689510	-3.720657	 9.459489	 30.690010	-0.563550	 10.519660	-59.687700	-45.243220	-7.565457	 18.179600	 20.684010	-0.546595	 0.179418	 15.656600	-0.371114	 3.445266	 0.000000	 90.000000	 0.000000	 174.628100	 6.043361	 170.327800	-176.401400	-1.759320	-5.482488
-0.004300	-0.042669	-0.056097	 176.297100	 2.222989	-89.353150	-5.237803	 1.138904	-0.929232	-4.614173	 2.907957	-0.897203	-1.208451	 3.931208	 112.675200	-0.813313	 0.122417	-8.559153	-45.275990	-22.883900	 28.477650	-27.510250	 32.551990	 6.217491	-7.190338	 24.023270	-27.911250	-8.953756	-3.071989	 24.106130	 2.488680	-1.130286	 21.288960	 3.059081	 0.110916	-64.908450	 1.440674	 2.318969	 24.821970	-0.234004	 3.160305	 23.717730	 2.679506	 4.990520	-60.571930	 38.141030	 20.006440	 21.642910	-6.604617	 19.273690	 22.846520	-5.500398	 19.244190	-63.450520	 18.383340	 10.349120	 28.277210	-3.778518	 9.430173	 23.440890	-0.535253	 10.411350	-62.262650	-54.109290	-10.712680	 9.309048	 17.287660	-0.542231	 0.150068	-0.779289	-0.298318	 3.315364	 0.634925	-0.681692	 90.152080	-90.376970	-0.359765	-95.932220	 178.719700	 4.896883	 109.523200	-0.813313	 0.122417	-8.559153	 7.566250	 13.763510	 54.039550	-44.174530	 2.754861	-3.278450	-0.924375	 7.287052	-21.159180	-11.188980	-4.248159	 42.460170	 2.471846	-1.140911	 43.582850	 2.633484	 0.814044	-48.996550	 0.299114	 1.758546	 37.468010	-0.215704	 3.169666	 30.627890	 2.661997	 5.029404	-59.970140	 41.240430	 21.318640	 21.512660	-6.541380	 19.301460	 26.524590	-5.636859	 19.246160	-70.116290	 19.895160	 11.278220	 30.171800	-3.726069	 9.456392	 29.996690	-0.552925	 10.480890	-60.614110	-44.331850	-7.130975	 19.201500	 20.168540	-0.546061	 0.174949	 15.792060	-0.371552	 3.446416	 0.000000	 90.000000	 0.000000	 174.196000	 6.737146	 169.781300	-176.281100	-1.831927	-5.354843
-0.004536	-0.050082	-0.045944	 175.827100	 2.546849	-89.209010	-6.100081	 1.332862	-1.079457	-5.368080	 3.399127	-1.042819	-0.850865	 2.701420	 112.334100	-0.813313	 0.122417	-8.559153	-46.187930	-22.808960	 27.456670	-24.235810	 32.310000	 5.702412	-8.005022	 23.735180	-32.787430	-8.482316	-2.871403	 22.150130	 2.490632	-1.129570	 18.974920	 3.099569	 0.011682	-66.976460	 1.751883	 2.456760	 23.048960	-0.239576	 3.157977	 21.688540	 2.716691	 4.904115	-61.898690	 37.995200	 19.953330	 20.737500	-6.633789	 19.262560	 21.187540	-5.519100	 19.243500	-64.365860	 18.369370	 10.341890	 27.334250	-3.794550	 9.423630	 21.512440	-0.522060	 10.351890	-63.665270	-54.578740	-10.827610	 8.952895	 16.183840	-0.540450	 0.140590	-3.346415	-0.283702	 3.297169	 0.741024	-0.780921	 90.177890	-90.437950	-0.422407	-97.498550	 178.887600	 4.280997	 109.273400	-0.813313	 0.122417	-8.559153	 6.776426	 14.226210	 54.251980	-51.447290	 1.314728	-2.883111	-0.724182	 4.771515	-22.710700	-11.114720	-4.178980	 43.546990	 2.470963	-1.141758	 44.946030	 2.615224	 0.836257	-48.441580	 0.404519	 1.839790	 37.783290	-0.217984	 3.168338	 29.740950	 2.697245	 4.950016	-61.195250	 41.614680	 21.452540	 20.579740	-6.559311	 19.293260	 25.473960	-5.677837	 19.249610	-72.126370	 20.134350	 11.412760	 29.540120	-3.732715	 9.452708	 29.151830	-0.540836	 10.433400	-61.743500	-43.233180	-6.579967	 20.435680	 19.539730	-0.545351	 0.169502	 15.957270	-0.372087	 3.447819	 0.000000	 90.000000	 0.000000	 173.684200	 7.587337	 169.103100	-176.135100	-1.922145	-5.197263
